<?xml version="1.0" encoding="UTF-8"?>
<svg id="Layer_2" data-name="Layer 2" xmlns="http://www.w3.org/2000/svg" viewBox="0 0 46.14 31.97">
  <defs>
    <style>
      .cls-1 {
        fill: #fff;
      }
    </style>
  </defs>
  <g id="Layer_1-2" data-name="Layer 1">
    <g>
      <path class="cls-1" d="m37.64,3.09c2.99,0,5.41,2.42,5.41,5.41v14.97c0,2.99-2.42,5.41-5.41,5.41h-20.38L4.37,15.98,17.26,3.09h20.38m0-3.09H15.98l-.9.9L2.18,13.8l-2.18,2.18,2.18,2.18,12.9,12.9.9.9h21.66c4.69,0,8.5-3.81,8.5-8.5v-14.97c0-4.69-3.81-8.5-8.5-8.5h0Z"/>
      <g>
        <path class="cls-1" d="m36.35,25.13c-.4,0-.79-.15-1.09-.45l-15.2-15.2c-.6-.6-.6-1.58,0-2.18.6-.6,1.58-.6,2.18,0l15.2,15.2c.6.6.6,1.58,0,2.18-.3.3-.7.45-1.09.45Z"/>
        <path class="cls-1" d="m21.15,25.13c-.4,0-.79-.15-1.09-.45-.6-.6-.6-1.58,0-2.18l15.2-15.2c.6-.6,1.58-.6,2.18,0,.6.6.6,1.58,0,2.18l-15.2,15.2c-.3.3-.7.45-1.09.45Z"/>
      </g>
    </g>
  </g>
</svg>